<svg width="60" height="60" viewBox="0 0 60 60" fill="none" xmlns="http://www.w3.org/2000/svg">
<path d="M28.5 10C28.5 9.17157 29.1716 8.5 30 8.5C30.8284 8.5 31.5 9.17157 31.5 10L28.5 10ZM31.5 50C31.5 50.8284 30.8284 51.5 30 51.5C29.1716 51.5 28.5 50.8284 28.5 50H31.5ZM16.4346 41.0559C15.8515 40.4675 15.8557 39.5178 16.4441 38.9346C17.0325 38.3515 17.9822 38.3557 18.5654 38.9441L16.4346 41.0559ZM21.8683 44.4074L22.9337 43.3515L21.8683 44.4074ZM38.1317 44.4074L39.1971 45.4633L38.1317 44.4074ZM41.4346 38.9441C42.0178 38.3557 42.9675 38.3515 43.5559 38.9346C44.1443 39.5178 44.1485 40.4675 43.5654 41.0559L41.4346 38.9441ZM29.2167 49.9503L29.027 51.4382H29.027L29.2167 49.9503ZM30.7833 49.9503L30.973 51.4382H30.973L30.7833 49.9503ZM30 10L31.5 10L31.5 50H30H28.5L28.5 10L30 10ZM17.5 40L18.5654 38.9441L22.9337 43.3515L21.8683 44.4074L20.8029 45.4633L16.4346 41.0559L17.5 40ZM38.1317 44.4074L37.0663 43.3515L41.4346 38.9441L42.5 40L43.5654 41.0559L39.1971 45.4633L38.1317 44.4074ZM21.8683 44.4074L22.9337 43.3515C24.7003 45.134 25.9376 46.3792 26.992 47.2259C28.0226 48.0536 28.7319 48.3763 29.4063 48.4623L29.2167 49.9503L29.027 51.4382C27.5785 51.2536 26.3554 50.5623 25.1135 49.565C23.8952 48.5866 22.5199 47.1957 20.8029 45.4633L21.8683 44.4074ZM38.1317 44.4074L39.1971 45.4633C37.4801 47.1957 36.1048 48.5866 34.8865 49.565C33.6446 50.5623 32.4215 51.2536 30.973 51.4382L30.7833 49.9503L30.5937 48.4623C31.2681 48.3763 31.9774 48.0536 33.008 47.2259C34.0624 46.3792 35.2997 45.134 37.0663 43.3515L38.1317 44.4074ZM29.2167 49.9503L29.4063 48.4623C29.8006 48.5126 30.1994 48.5126 30.5937 48.4623L30.7833 49.9503L30.973 51.4382C30.3269 51.5206 29.6731 51.5206 29.027 51.4382L29.2167 49.9503Z" fill="#F5F5F5"/>
</svg>
