<svg width="80" height="80" viewBox="0 0 80 80" fill="none" xmlns="http://www.w3.org/2000/svg">
<path d="M28.3334 20H51.6667M33.3334 56.6667H46.6667M40 63.3334V50M50 37.2455C57.8832 40.9903 63.3334 49.0254 63.3334 58.3334V65C63.3334 68.6819 60.3486 71.6667 56.6667 71.6667H23.3334C19.6515 71.6667 16.6667 68.6819 16.6667 65V58.3334C16.6667 49.0254 22.1169 40.9903 30 37.2455M40 40C33.5567 40 28.3334 34.7767 28.3334 28.3334V13.3334C28.3334 9.65146 31.3181 6.66669 35 6.66669H45C48.6819 6.66669 51.6667 9.65146 51.6667 13.3334V28.3334C51.6667 34.7767 46.4433 40 40 40Z" stroke="#F5F5F5" stroke-width="5" stroke-linecap="round" stroke-linejoin="round"/>
</svg>
