<svg width="80" height="80" viewBox="0 0 80 80" fill="none" xmlns="http://www.w3.org/2000/svg">
<path d="M22.1061 18.7769L26.4303 24.8105M59.375 19.5174L55.0507 25.5513M40.0146 11.6667V21.6667M40 68.3333C56.5685 68.3333 70 54.4633 70 45C70 35.5367 56.5685 21.6667 40 21.6667C23.4315 21.6667 10 35.5463 10 45C10 54.4537 23.4315 68.3333 40 68.3333ZM40 55C45.5228 55 50 50.5228 50 45C50 39.4772 45.5228 35 40 35C34.4772 35 30 39.4772 30 45C30 50.5228 34.4772 55 40 55Z" stroke="#F5F5F5" stroke-width="5" stroke-linecap="round" stroke-linejoin="round"/>
</svg>
