<svg width="80" height="80" viewBox="0 0 80 80" fill="none" xmlns="http://www.w3.org/2000/svg">
<path d="M8.33337 46.6667H30C33.3334 46.6667 36.6667 51.6667 40 51.6667C42.8811 51.6667 48.2524 49.1765 50.733 53.8816C51.517 55.3686 50.4699 57.0677 48.917 57.7116C45.3202 59.2029 41.3138 61.2288 40 61.6667L30 58.3334M51.6667 55L66.92 48.8987C67.846 48.5283 68.853 48.4076 69.8403 48.5486C73.3296 49.0471 74.3153 53.6176 71.3416 55.5099L45.8621 71.7242C44.2538 72.7476 42.2844 73.0336 40.4514 72.5099L8.33337 63.3334M40 40C33.5834 37.7411 21.6667 28.0304 21.6667 17.3485C21.6667 11.4491 26.1812 6.66669 31.75 6.66669C35.1603 6.66669 38.1752 8.46017 40 11.2053C41.8248 8.46017 44.8398 6.66669 48.25 6.66669C53.8189 6.66669 58.3334 11.4491 58.3334 17.3485C58.3334 28.0304 46.4167 37.7411 40 40Z" stroke="#F5F5F5" stroke-width="5" stroke-linecap="round" stroke-linejoin="round"/>
</svg>
