<svg width="80" height="80" viewBox="0 0 80 80" fill="none" xmlns="http://www.w3.org/2000/svg">
<path d="M31.6667 9.99955H35C38.6819 9.99955 41.6667 12.9843 41.6667 16.6662V30C41.6667 39.2048 34.2048 46.6667 25 46.6667M18.3334 9.99955H15C11.3181 9.99955 8.33337 12.9843 8.33337 16.6662V30C8.33337 39.2048 15.7953 46.6667 25 46.6667M25 46.6667V55C25 65.1252 33.2082 73.3333 43.3334 73.3333C53.4586 73.3333 61.6667 65.1252 61.6667 55V51.6667M61.6667 51.6667C66.2691 51.6667 70 47.9357 70 43.3333C70 38.731 66.2691 35 61.6667 35C57.0643 35 53.3334 38.731 53.3334 43.3333C53.3334 47.9357 57.0643 51.6667 61.6667 51.6667ZM31.6667 6.66663L31.6666 13.3326M18.3334 6.66669V13.3334" stroke="#234D9C" stroke-width="5" stroke-linecap="round" stroke-linejoin="round"/>
</svg>
