<svg width="40" height="40" viewBox="0 0 40 40" fill="none" xmlns="http://www.w3.org/2000/svg">
<g clip-path="url(#clip0_856_297)">
<path d="M20 0C14.6969 0 9.60625 2.10844 5.85938 5.85781C2.10866 9.6087 0.00107328 14.6956 0 20C0 25.3022 2.10938 30.3928 5.85938 34.1422C9.60625 37.8916 14.6969 40 20 40C25.3031 40 30.3937 37.8916 34.1406 34.1422C37.8906 30.3928 40 25.3022 40 20C40 14.6978 37.8906 9.60719 34.1406 5.85781C30.3937 2.10844 25.3031 0 20 0Z" fill="#02A4E8"/>
<path d="M9.05242 19.7888C14.8837 17.2488 18.7712 15.5742 20.7149 14.7651C26.2712 12.4548 27.4243 12.0535 28.1774 12.0399C28.343 12.0373 28.7118 12.0782 28.9524 12.2727C29.1524 12.4368 29.2087 12.6587 29.2368 12.8144C29.2618 12.9701 29.2962 13.3248 29.268 13.6016C28.968 16.7641 27.6649 24.4385 27.0024 27.9807C26.7243 29.4794 26.1712 29.9819 25.6368 30.031C24.4743 30.1379 23.593 29.2635 22.468 28.5263C20.7087 27.3723 19.7149 26.6541 18.0055 25.5282C16.0305 24.2269 17.3118 23.5116 18.4368 22.3429C18.7305 22.0369 23.8493 17.3823 23.9462 16.9601C23.9587 16.9073 23.9712 16.7104 23.8524 16.6066C23.7368 16.5026 23.5649 16.5382 23.4399 16.5663C23.2618 16.6063 20.4524 18.4651 15.0024 22.1423C14.2055 22.6904 13.4837 22.9576 12.8337 22.9435C12.1212 22.9282 10.7462 22.5398 9.7243 22.2079C8.4743 21.8007 7.47742 21.5854 7.56492 20.8938C7.60867 20.5338 8.10555 20.1654 9.05242 19.7888Z" fill="white"/>
</g>
<defs>
<clipPath id="clip0_856_297">
<rect width="40" height="40" fill="white"/>
</clipPath>
</defs>
</svg>
