<svg width="30" height="20" viewBox="0 0 30 20" fill="none" xmlns="http://www.w3.org/2000/svg">
<path d="M1.6665 11.5C0.838077 11.5 0.166504 10.8284 0.166504 9.99999C0.166504 9.17157 0.838077 8.49999 1.6665 8.49999L1.6665 11.5ZM28.3332 8.49999C29.1616 8.49999 29.8332 9.17157 29.8332 9.99999C29.8332 10.8284 29.1616 11.5 28.3332 11.5V8.49999ZM22.7224 19.3987C22.134 19.9819 21.1843 19.9776 20.6011 19.3892C20.018 18.8009 20.0222 17.8511 20.6106 17.2679L22.7224 19.3987ZM24.6048 15.4211L23.5489 14.3558L24.6048 15.4211ZM24.6048 4.57884L25.6607 3.51346L24.6048 4.57884ZM20.6106 2.73204C20.0222 2.14888 20.018 1.19914 20.6011 0.610743C21.1843 0.0223484 22.134 0.0181122 22.7224 0.601278L20.6106 2.73204ZM28.3 10.5222L29.788 10.7119L29.788 10.7119L28.3 10.5222ZM28.3 9.47777L29.788 9.28811V9.28812L28.3 9.47777ZM1.6665 9.99999L1.6665 8.49999L28.3332 8.49999V9.99999V11.5L1.6665 11.5L1.6665 9.99999ZM21.6665 18.3333L20.6106 17.2679L23.5489 14.3558L24.6048 15.4211L25.6607 16.4865L22.7224 19.3987L21.6665 18.3333ZM24.6048 4.57884L23.5489 5.64422L20.6106 2.73204L21.6665 1.66666L22.7224 0.601278L25.6607 3.51346L24.6048 4.57884ZM24.6048 15.4211L23.5489 14.3558C24.7455 13.1697 25.5514 12.3678 26.0939 11.6923C26.6175 11.0404 26.7712 10.6532 26.8121 10.3326L28.3 10.5222L29.788 10.7119C29.6485 11.8066 29.1262 12.7076 28.433 13.5708C27.7588 14.4103 26.8073 15.3502 25.6607 16.4865L24.6048 15.4211ZM24.6048 4.57884L25.6607 3.51346C26.8073 4.64983 27.7588 5.58974 28.433 6.42922C29.1262 7.29237 29.6485 8.19342 29.788 9.28811L28.3 9.47777L26.8121 9.66743C26.7712 9.34681 26.6175 8.9596 26.0939 8.30771C25.5514 7.63216 24.7455 6.83026 23.5489 5.64422L24.6048 4.57884ZM28.3 10.5222L26.8121 10.3326C26.8402 10.1117 26.8402 9.88827 26.8121 9.66743L28.3 9.47777L29.788 9.28812C29.8482 9.76081 29.8482 10.2392 29.788 10.7119L28.3 10.5222Z" fill="#F5F5F5"/>
</svg>
